<svg width="32" height="32" fill="none" xmlns="http://www.w3.org/2000/svg"><path d="M13.688.027c-1.274.232-2.761.644-3.853 1.069-1.252.489-3.21 1.647-3.83 2.278-.28.283-.408.309-1.317.309-.567 0-1.113.051-1.22.128-.203.13-.246.22-1.199 2.189C.076 10.556-.01 10.775.001 11.547c.021 1.416.974 3.154 2.215 4.03 2.13 1.505 4.783 1.196 6.592-.786.727-.785 1.091-1.467 1.348-2.51.236-.991.14-1.377-.952-3.694-.493-1.03-1.07-2.266-1.284-2.755-.214-.476-.46-.862-.525-.862-.246 0-.61.399-.61.656 0 .142.118.464.246.734.14.257.707 1.455 1.252 2.664.685 1.507.996 2.317.996 2.588-.011.592-.364 1.441-.889 2.15-1.401 1.904-4.366 2.175-6.131.553-.503-.45-1.092-1.545-1.263-2.33-.107-.463-.086-.592.225-1.352.342-.862 1.327-2.934 2.022-4.312.225-.424.46-.965.535-1.197l.14-.411h1.037c.878 0 1.081-.04 1.402-.284 2.761-2.098 5.147-3.089 7.898-3.295l1.198-.09.01 8.302c.012 4.57.022 8.457.033 8.65.053.644.482.965.792.592.096-.116.128-2.252.128-8.804 0-4.763.032-8.688.086-8.714.193-.129 2.632.193 3.628.489 1.765.515 4.195 1.763 5.436 2.819.257.219.535.283 1.391.335 1.049.064 1.06.064 1.23.45.086.206.61 1.313 1.167 2.433.546 1.12 1.156 2.445 1.348 2.934.31.773.343.94.257 1.404-.342 1.827-1.926 3.282-3.735 3.423-1.594.142-2.974-.502-3.798-1.737-.471-.721-.803-1.61-.803-2.137 0-.155.16-.618.353-1.043.193-.424.567-1.235.813-1.802.257-.566.685-1.441.931-1.956.257-.502.471-1.017.471-1.12 0-.296-.513-.67-.717-.515-.085.065-.353.554-.588 1.081a123.48 123.48 0 0 1-1.306 2.768c-.845 1.75-.867 1.827-.867 2.638 0 2.987 3.2 5.561 6.1 4.905 1.402-.31 2.986-1.584 3.628-2.897.374-.759.62-1.905.546-2.445-.043-.245-.268-.837-.503-1.326a93.674 93.674 0 0 1-.942-1.97c-1.124-2.432-1.744-3.68-1.948-3.9-.17-.18-.417-.218-1.23-.218h-1.017l-.717-.58C24.09 1.882 22.1.942 19.744.324 18.92.104 18.257.04 16.363.014c-1.295-.025-2.494-.013-2.675.013ZM7.353 19.888c-.824.335-1.252.798-1.67 1.802-.642 1.532-.61 3.166.065 4.698.577 1.313 1.53 1.892 3.114 1.867.952-.013 1.701-.27 2.15-.734.268-.283.279-.309.247-1.93l-.032-1.636-1.52-.038-1.53-.039v.785h2.568v1.069c0 1.274-.086 1.416-.974 1.712-1.573.489-2.878-.116-3.51-1.635-.289-.682-.332-.94-.332-1.79 0-.566.075-1.235.161-1.557.61-2.06 2.6-2.806 4.28-1.596.653.477.803.477.803.026 0-.348-.535-.81-1.241-1.068-.696-.245-1.905-.22-2.58.064ZM14.008 21.935a4.647 4.647 0 0 0-.588.605l-.268.347-.053-.502c-.043-.386-.107-.502-.29-.528l-.245-.038v2.909c0 2.471.021 2.909.16 2.973.086.052.236.013.321-.077.129-.129.15-.528.14-2.047-.011-1.686.01-1.956.192-2.342.257-.541.631-.76 1.295-.798.47-.026.513-.052.513-.348 0-.283-.053-.322-.428-.36-.278-.013-.545.051-.749.206ZM16.791 21.844c-.343.116-.803.554-.803.76 0 .205.247.205.792-.026.696-.283 1.092-.283 1.563 0 .438.257.642.682.642 1.364 0 .45-.022.49-.236.412-1.091-.386-2.065-.167-2.686.58-.406.488-.417.527-.374 1.235.043.63.107.785.428 1.145.663.721 1.808.708 2.547-.025.235-.245.32-.283.32-.142 0 .258.311.63.44.54.17-.128.117-4.517-.065-5.032-.267-.785-1.52-1.184-2.568-.81Zm1.969 3.257c.45.489.171 1.57-.482 1.943a1.867 1.867 0 0 1-.738.193c-1.21 0-1.712-1.699-.663-2.265.481-.258 1.594-.18 1.883.129ZM22.131 21.947c-.193.142-.375.322-.428.425-.064.116-.107.077-.15-.155-.043-.231-.139-.321-.32-.321h-.268l-.033 2.78c-.021 2.355 0 2.806.14 2.948.085.09.224.128.31.09.128-.065.16-.515.192-2.394.033-2.64.086-2.806.92-2.935.365-.065.472-.013.707.257l.278.335v2.317c0 1.416.043 2.342.107 2.394.065.039.204.039.321 0 .204-.077.214-.193.214-2.317 0-1.223.033-2.33.065-2.446.085-.257.599-.579.941-.579.15 0 .407.142.568.31l.3.308.031 2.343c.032 1.892.064 2.342.193 2.407.085.038.224 0 .31-.09.129-.13.16-.541.16-2.111-.01-2.446-.096-2.987-.524-3.45-.267-.283-.438-.36-.824-.36-.503 0-.974.218-1.209.566-.128.18-.171.154-.439-.18-.246-.31-.385-.386-.77-.386-.268 0-.6.102-.792.244ZM2.826 31.163c-.075.103-.107.322-.064.515l.064.322H29.15l.064-.322c.16-.746.985-.708-13.227-.708-11.396 0-13.044.026-13.162.193Z" fill="#FFFDFD"/></svg>