<svg width="32" height="32" fill="none" xmlns="http://www.w3.org/2000/svg"><g clipPath="url(#a)" fill="#FCFAFA"><path d="M.486.064c.052.032.476.219.94.421l.849.363.424-.235A3.935 3.935 0 0 1 4.012.16C4.187.128 6.447.107 9.445.107 12.655.1 14.578.08 14.578.053 14.578.021 11.932 0 7.486 0 2.306.005.414.02.486.064ZM22.736.037c.119.011.315.011.44 0 .118-.01.02-.02-.223-.02s-.341.01-.217.02ZM25.145.037c.02.027.729.059 1.572.075 1.504.027 1.545.032 1.975.176a5.193 5.193 0 0 1 1.835 1.056c.18.16.253.203.284.15.02-.038.067-.054.098-.033.031.022.114-.005.186-.053.13-.09.476-.085.791.01l.114.033V0h-3.448c-1.892 0-3.428.016-3.407.037ZM4.162.8a3.776 3.776 0 0 0-1.19.39c-.423.229-1.054.885-1.256 1.295-.325.672-.346.806-.346 2.475v1.515l.574.17c.64.187.651.187 1.442-.058.641-.198 1.106-.395 1.303-.544a1.05 1.05 0 0 1 .191-.123c.01 0 .088-.027.166-.053.134-.054.134-.059.041-.17-.093-.108-.093-.113-.005-.172a1.56 1.56 0 0 0 .201-.154c.12-.102.249-.123.249-.038 0 .064.186-.026.3-.144.04-.037.087-.058.113-.042.026.016.057.005.078-.022.015-.032.067-.042.119-.026.067.026.072.021.015-.022-.077-.058.01-.144.098-.09.031.016.052.005.052-.022 0-.032.031-.058.067-.058.042 0 .114-.048.166-.107.056-.064.129-.096.175-.08.047.021.016-.048-.072-.144-.083-.096-.238-.267-.336-.384-.233-.267-.078-.187.372.187l.326.266.057-.149c.036-.08.093-.15.129-.155.176-.016.202-.026.202-.106 0-.064.03-.08.119-.054.098.022.134 0 .18-.1.047-.102.037-.15-.051-.268l-.104-.138.192.08c.217.096.305.07.258-.08-.02-.07-.01-.102.047-.102.046 0 .082-.026.082-.058s.047-.043.109-.022c.093.032.103.022.072-.074-.036-.123.021-.15.12-.048.082.085.211-.038.18-.17-.03-.124 0-.134.14-.054.082.042.113.032.186-.08.046-.075.103-.118.13-.102.025.016.046 0 .046-.037 0-.043.015-.048.067 0 .083.07.14.027.14-.112 0-.107.056-.123.134-.043.067.07.382-.144.382-.266 0-.07.031-.086.124-.07.088.022.13 0 .15-.085.016-.07.068-.112.13-.112.056 0 .113-.027.124-.059.01-.037.088-.037.232-.005.207.048.217.048.166-.053-.098-.192-.021-.262.263-.23.187.016.259.006.259-.042 0-.038.072-.064.196-.064.104.005.207-.022.228-.054.02-.026.041.011.041.091 0 .17 0 .17.176.09.088-.042.16-.149.217-.309.052-.133.124-.282.16-.325.067-.07.083-.064.17.043.073.09.156.122.347.128.135.005.264.032.28.058.051.075.625-.25.904-.517l.253-.24-4.91.005c-2.7 0-5.03.022-5.17.043ZM22.312.976c-.083.107-.165.347-.233.65a5.622 5.622 0 0 1-.14.582c-.025.075-.02.09.027.059.051-.027.057-.01.036.07-.02.058-.01.122.015.138.026.021.042.08.032.138-.01.06-.006.102.015.102.119-.022.217.01.191.058-.015.027.005.054.052.054.057 0 .078.026.057.08-.02.053.005.08.077.08.057 0 .088.021.073.053-.02.037.015.037.103 0 .186-.075.222-.064.109.027-.057.042-.088.08-.073.08.073 0 .946-.427 1.03-.502.154-.138.128-.49-.063-.778-.165-.25-.165-.288-.067-.87l.03-.197h-1.142l-.129.176ZM25.331.955c0 .085.026.165.062.176.031.01.062.16.067.357.01.181.026.341.037.352.046.048.346.096.573.085a.776.776 0 0 1 .486.134c.13.074.217.112.197.074-.026-.042-.016-.058.03-.042.042.016.068.069.068.117-.005.048.016.08.052.07.03-.017.051-.054.046-.086-.02-.075.073-.075.114 0 .02.032.072.043.114.027.046-.022.108-.006.15.026.098.08.64.123.64.048 0-.032.027-.042.052-.026.031.02.083.01.12-.016a.821.821 0 0 1 .253-.086c.134-.026.227-.09.33-.234.078-.107.176-.22.212-.24a.152.152 0 0 0 .068-.112c0-.038.046-.134.103-.208l.109-.14-.166-.084a4.056 4.056 0 0 0-.651-.22C27.942.812 27.807.8 26.618.8h-1.287v.155ZM21.956 1.03c-.254.277-.724.858-.626.767.124-.106.196-.122.145-.026-.026.048-.01.048.046-.006.098-.08.12-.138.026-.08-.036.022-.041.016-.02-.026.02-.032.061-.048.087-.032.026.021.047-.006.047-.048 0-.043.02-.091.051-.112.026-.016.016.08-.025.218-.037.134-.057.23-.042.214.052-.054.476-.992.45-.992a.602.602 0 0 0-.14.122ZM28.464 2.267c-.057.042-.077.08-.046.08.03 0 .082-.038.118-.08.083-.102.057-.102-.072 0ZM28.123 2.4c-.093.064-.01.064.129 0 .067-.032.078-.048.026-.048a.349.349 0 0 0-.155.048ZM.682 3.2c0 .075.01.101.026.064a.29.29 0 0 0 0-.133C.693 3.099.682 3.125.682 3.2ZM.18 3.307c-.015.026-.061.037-.102.016C.036 3.307 0 3.317 0 3.349c0 .102.14.107.196.006.037-.054.052-.102.042-.102-.016 0-.036.022-.057.054ZM.626 3.445c0 .059.015.075.03.032.016-.037.01-.085-.005-.101-.015-.021-.03.01-.025.07ZM.212 3.43a.75.75 0 0 0 .145.09c.098.048.113.048.098-.005-.01-.038-.078-.075-.145-.086-.067-.01-.114-.01-.098 0Z"/><path d="M0 4.741v1.275l.305.107.305.106.02-1.232C.652 3.776.62 3.445.508 3.563.47 3.6.393 3.595.248 3.54a2.024 2.024 0 0 0-.227-.074C.01 3.467 0 4.043 0 4.74ZM31.726 4.944c-.02.016-.036.09-.036.16 0 .09.02.117.067.085.062-.042.088-.048.191-.064.031 0 .052-.053.052-.112 0-.074-.036-.106-.119-.106-.067 0-.14.016-.155.037ZM30.216 5.157c-.082.011-.49.054-.904.102-.915.096-1.463.23-1.939.453a5.116 5.116 0 0 1-.667.261c-.3.086-.32.086-.61-.016-.258-.09-.33-.096-.506-.042-.254.074-.512.304-.652.565-.082.165-.144.203-.455.299a6.333 6.333 0 0 1-.832.181c-.657.09-2.26.613-3.055.987-.646.31-.719.33-1.184.352-.651.026-.853.064-1.411.24-.27.085-.585.154-.704.154-.19.006-.201.011-.103.07.166.096.119.272-.14.517-.268.261-.227.24.394-.16.537-.352.8-.496.832-.464.041.037-.32.315-1.065.81-.693.465-.982.683-.605.465.227-.139.243-.139.243-.054 0 .038-.083.14-.181.22-.248.202-.233.266.052.234.134-.01.336.01.46.053.196.07.264.07.527 0 .409-.107.393-.107.527-.064.186.064.15.304-.082.56-.114.117-.243.213-.3.213-.052 0-.202.07-.326.155-.186.128-.243.144-.32.096-.073-.048-.114-.043-.187.027-.144.138-.366.208-.398.133-.01-.037-.025-.027-.025.021-.006.064-.042.08-.135.06a.268.268 0 0 0-.232.068c-.073.07-.12.08-.166.043-.036-.032-.165-.075-.284-.096-.269-.043-.29-.16-.088-.437.072-.096.103-.176.078-.176-.031 0-.042-.038-.026-.08.036-.09-.104-.25-.166-.198-.026.022 0-.02.057-.09.124-.155.16-.17-.615.314l-.615.39-.6.01c-.33.006-1.122.048-1.763.096-3.975.3-4.446.352-4.446.47 0 .032.021.042.047.026.062-.042 1.246-.176 1.892-.218a62.17 62.17 0 0 0 1.422-.107c1.56-.128 2.76-.197 2.946-.181l.181.021-.46.384c-.31.256-.543.405-.698.448-.134.032-.62.07-1.09.075-.993.016-1.64.09-1.965.213-.13.053-.791.17-1.473.272-1.618.235-1.598.23-1.618.416a4.39 4.39 0 0 1-.197.63c-.098.26-.176.554-.176.645l-.005.17-.083-.154c-.113-.219-.062-.544.16-1.099.104-.245.187-.453.187-.453h-.336c-.305-.006-.445-.043-.378-.107.01-.016.228-.064.47-.112.42-.08.46-.101.606-.288.16-.208.201-.315.093-.23-.036.027-.17.06-.3.065-.13.005-.455.058-.734.117a5.68 5.68 0 0 1-.88.101c-.81 0-2.708.23-3.05.368-.17.064-.185.224-.082.79.042.25.047.373.005.437-.041.07-.026.165.073.41.072.171.165.358.212.406.082.101.088.101-.207.117-.124.011-.119.064.015.368.099.208.15.262.316.304.263.075.346 0 .315-.293-.036-.32.047-.39.48-.432a2.4 2.4 0 0 1 .56 0c.18.037.185.043.185.267 0 .128-.03.256-.067.288-.031.026-.274.064-.532.074-.357.011-.492.038-.559.107-.077.085-.082.107-.005.25.041.091.135.385.207.651.134.523.18.63.18.411 0-.075.032-.15.073-.165.098-.038.135.005.135.165 0 .112.01.117.077.064a.293.293 0 0 0 .078-.192c0-.075.03-.128.072-.128.088 0 .155-.325.109-.533-.031-.139-.01-.16.253-.294.16-.08.29-.18.29-.218 0-.043.051-.075.118-.075.17 0 .285-.101.44-.4l.14-.261.8.016c.44.005.817.032.838.048.02.021.181.288.362.597.3.517.346.57.61.704.155.08.32.181.367.23.047.042.155.357.243.693.093.341.259.81.377 1.056.445.912.595.97 2.306.88l1.148-.059.532.272c.74.379 1.205.496 1.67.437.202-.026.491-.048.651-.053.285 0 .305-.01.636-.32.192-.176.383-.32.43-.32.046 0 .165-.075.258-.17l.165-.166.6.053c.868.075 3.479-.053 4.017-.202a.922.922 0 0 0 .584-.507c.072-.176.083-.181.372-.181.243 0 .315.021.367.106a.234.234 0 0 0 .181.107c.32.005.496.224.651.821.078.304.093.326.243.342l.166.016.077-.443c.114-.624.16-.736.316-.736a.517.517 0 0 0 .45-.245c.051-.107.103-.128.325-.128.3-.006.641-.075.714-.15.16-.165.14-.832-.042-1.669-.077-.357-.077-.357-.294-.416-.125-.027-.58-.09-1.019-.139-1.039-.112-2.016-.272-2.156-.362-.02-.016-.046.058-.056.17-.063.88-.083.992-.207 1.008a.523.523 0 0 1-.27-.053l-.154-.07v-1.295l.176-.064c.098-.032.237-.064.315-.07.072-.005.15-.037.17-.069.021-.032.166-.08.321-.107l.284-.048.006-.32.005-.32.201-.064c.32-.096.383-.085.383.064 0 .123-.02.134-.212.134h-.207l.005.437c.01.656.01.672-.088.693-.051.011.12.048.373.086.548.074 1.478.133 1.385.085-.077-.037-.088-.288-.015-.288.03 0 .051-.187.051-.448v-.448l-.155-.032c-.124-.021-.155-.059-.155-.16 0-.085-.036-.144-.103-.165-.109-.038-.145-.134-.052-.134.031 0 .052.022.052.043 0 .09.605.299.915.32.269.021.418-.01.889-.17.315-.107.615-.193.672-.193a.208.208 0 0 0 .155-.09c.041-.086.072-.07.227.117.099.117.259.39.352.597l.17.39h.228c.202 0 .233-.016.285-.16.067-.187.17-.182.15.005-.037.325-.543.533-.657.272-.052-.117-.067-.123-.388-.08-.186.021-.806.037-1.38.027l-1.04-.01-.02.335-.016.341.326.06c.414.068.558.164.6.4l.036.186.605.037c.33.021.9.027 1.256.01l.651-.026.114.155c.093.128.15.154.316.154.201 0 .206-.005.206-.18v-.182l.331-.038c.409-.042.564.022.517.214-.046.186.098.176.233-.016.062-.08.134-.182.17-.224.047-.054.073-.347.088-.928l.016-.848-.403.032c-1.195.101-1.588.106-1.562.032.021-.059.197-.086.745-.112.75-.043 1.153-.096.987-.134-.072-.02-.088-.08-.088-.272 0-.138-.01-.469-.03-.74l-.032-.486-.165.026c-.135.022-.176.006-.233-.112-.041-.074-.062-.154-.041-.17.015-.022.248.026.512.106.263.075.537.14.604.14.073 0 .238-.08.378-.177.233-.16.243-.181.248-.421v-.246l-.243-.032c-.17-.02-.398.006-.713.08-.76.182-.843.187-.988.043l-.124-.117v.272c0 .154-.02.277-.052.277-.03 0-.051-.219-.051-.55 0-.565-.155-1.62-.285-1.946l-.072-.17h-.59c-1.043 0-2.434.303-3.261.714-.538.267-.853.357-2.435.699-1.127.245-2.931.517-3.07.464-.058-.022-.042-.059.061-.15.093-.08.233-.128.46-.154.822-.09 1.453-.192 2.626-.422a62.223 62.223 0 0 0 1.36-.277c.057-.021-.155-.117-.569-.261-.884-.304-1.442-.582-2.248-1.099-.657-.427-.667-.437-.554-.517.207-.15.657-.17 1.99-.112 1.495.07 1.557.058 1.877-.304a2.39 2.39 0 0 1 .233-.235c.067 0 .408 1.317.362 1.397-.016.022.02.043.077.043.078 0 .114.048.14.197.03.166.015.208-.088.3l-.124.106.13-.027c.072-.016.397-.107.723-.197.698-.192 1.804-.379 2.259-.379.264 0 .315-.016.295-.08-.021-.043-.062-.08-.104-.08-.093 0-.144-.224-.108-.459.02-.112 0-.24-.047-.33a1.075 1.075 0 0 1-.072-.368c0-.123-.036-.41-.078-.64a9.218 9.218 0 0 1-.077-.459c0-.021.186-.037.408-.037.43 0 .517-.027 1.272-.4.201-.096.61-.299.915-.448.677-.33.853-.55.62-.768-.093-.086-.243-.102-.605-.054ZM27.337 6.7c.088.037.165.09.165.112 0 .026-.129.074-.29.112-.346.074-.48.016-.475-.214.005-.144.01-.149.217-.117.12.021.29.07.383.107Zm-1.489.074c-.103.07-.274.07-.232 0 .015-.032.093-.053.17-.053.109 0 .124.01.062.053Zm-.93.614c0 .07.03.133.067.15.077.026-.217.122-.517.17-.14.021-.223.016-.223-.016 0-.112.274-.384.43-.427.201-.059.243-.037.243.123Zm1.442.272c.191.165.419.842.32.944-.03.032-.056.16-.056.282 0 .134-.031.262-.083.31-.13.133-.367.106-.522-.064-.109-.118-.124-.123-.073-.027.078.155.073.23-.02.23-.042 0-.109-.075-.155-.16-.073-.145-.073-.16 0-.16.119 0 .093-.086-.057-.15-.248-.117-.372-.763-.207-1.072.16-.293.59-.363.853-.133Zm.408 1.28c-.015.074-.026.064-.051-.048-.016-.102-.01-.134.02-.102.031.032.042.096.031.15Zm-2.76 2.368c-.088.09-2.42.682-3.774.954-1.54.315-1.727.347-1.623.278.041-.027.708-.182 1.473-.347.77-.165 1.918-.443 2.559-.613 1.163-.315 1.463-.374 1.365-.272Zm3.882 1.312c.047.16.083.298.072.31-.01.01-.217.042-.454.074-.243.037-.492.101-.564.15-.15.1-.207.058-.305-.23-.114-.342-.093-.379.207-.464.294-.086.475-.118.765-.134.186-.005.191 0 .28.294Zm-2.073-.059c.047.075.067.133.041.133-.025 0-.072-.058-.103-.133-.031-.075-.052-.133-.041-.133.01 0 .057.058.103.133Zm3.035.49a.825.825 0 0 1 .206.326c.047.17.042.23-.067.437-.108.22-.14.24-.341.256-.16.011-.227-.005-.248-.064-.026-.074-.042-.074-.15 0-.109.075-.119.07-.15-.058-.036-.155.01-.4.078-.4.087 0 .46-.544.465-.683.005-.107.015-.117.03-.043.016.054.094.16.177.23Zm-.42.011c0 .06-.2.134-.242.096-.016-.016-.01-.053.01-.085.042-.07.233-.08.233-.01Zm-.63.054c.083.053.067.55-.02.576-.063.021-.228-.315-.228-.464 0-.086.057-.144.155-.155.016 0 .057.016.093.043Zm-2.223.112c.062.101.052.106-.258.106l-.326-.005.207-.096c.269-.133.3-.133.377-.005Zm1.2.106c0 .027-.021.054-.052.054-.026 0-.052-.027-.052-.054 0-.032.026-.053.052-.053.031 0 .052.021.052.053Zm.744.064c.067.112-.01.272-.145.3-.093.02-.206-.225-.16-.348.036-.1.233-.069.305.048Zm-2.57-.032c-.015.016-.061.022-.098.006-.04-.016-.025-.032.032-.032.056-.006.087.01.067.026Zm4.291.502c.006.058-.02.106-.067.106-.041 0-.072-.01-.072-.02a.841.841 0 0 0-.031-.108c-.02-.058 0-.085.067-.085.062 0 .098.043.104.107Zm-15.855.224c.15.08.238.16.243.23.005.058.047.218.098.362.073.208.073.277.021.41-.134.331-.579.571-.92.502-.222-.048-.563-.432-.61-.699-.072-.405.377-.923.806-.923.073 0 .238.054.362.118Zm10.417.165c.078.123.14.741.093.875a.122.122 0 0 1-.103.07c-.042 0-.057-.028-.042-.054.016-.032.006-.054-.02-.054-.031 0-.057.022-.057.054 0 .026-.067.053-.155.053-.098 0-.155-.027-.155-.075a.203.203 0 0 0-.073-.133c-.082-.07-.015-.544.104-.741.098-.155.305-.155.408.005Zm-16.026.565c-.088.102-.082.102.109 0a.562.562 0 0 1 .408-.074c.114.016.248.037.3.048.145.021.352.266.388.464.062.298.015.464-.186.682-.254.272-.569.336-.88.171-.366-.192-.542-.57-.428-.928.057-.181.269-.464.346-.464.02 0-.005.048-.057.101Zm1.846.358a1.73 1.73 0 0 0-.28.304c-.036.08-.01.064.094-.048.155-.17.362-.272.424-.208.02.021-.01.074-.068.122-.118.102-.284.331-.284.4 0 .022.072-.042.16-.149.099-.117.207-.187.285-.187.165 0 .155.064-.031.203-.083.07-.217.245-.295.4-.13.25-.145.33-.145.832 0 .507-.005.533-.062.347a1.893 1.893 0 0 1-.062-.395c-.01-.293-.108-.4-.108-.117 0 .133-.021.218-.052.197-.098-.064-.109-.384-.026-.773.047-.219.088-.448.083-.502-.005-.229.31-.618.501-.618.047 0-.01.08-.134.192Zm-5.49.47c0 .015-.021.042-.052.058-.026.016-.052.005-.052-.022 0-.032.026-.058.052-.058.031 0 .052.01.052.021Zm-.414.164c.135.171-.072.56-.217.411-.041-.043-.078-.037-.124.032-.072.101-.098.09-.145-.085-.03-.086-.015-.118.041-.118.052 0 .083-.048.083-.122 0-.07.016-.144.036-.16.062-.064.259-.038.326.042Zm6.958.39c.006.037.01.085.016.117 0 .027.052.053.103.053.176 0 .181.112.01.278-.087.085-.16.176-.16.208 0 .026-.02.048-.051.048-.026 0-.052-.075-.052-.16 0-.15-.01-.155-.103-.096-.114.074-.14.352-.052.528.041.074.036.101-.005.101-.031 0-.047.037-.026.09.026.08.015.08-.047-.01-.082-.107-.18-.416-.18-.56 0-.043.025-.17.056-.283.073-.277.47-.528.491-.314Zm13.142 1.674c.036.038.062.134.062.214v.15h-.373c-.206 0-.429.015-.49.031-.11.032-.12.016-.12-.176 0-.117.016-.23.037-.245.062-.064.816-.043.884.026Zm-9.714.288c-.264.294-.615.38-2.321.587-1.226.15-2.192.192-2.337.101-.057-.037.119-.053.595-.064.863-.005 1.716-.09 2.657-.256.91-.16 1.106-.218 1.318-.405.207-.176.264-.155.088.037Zm9.465.208a.228.228 0 0 1 .026.187c-.057.192-.336.101-.336-.112 0-.15.207-.203.31-.075Zm-.129.667c-.015.027-.052.053-.082.053-.026 0-.047-.026-.047-.053 0-.032.036-.053.083-.053.041 0 .062.021.046.053Z"/><path d="M9.31 16.352c0 .059.016.075.031.032.016-.037.01-.085-.005-.101-.015-.022-.03.01-.026.07ZM0 7.861c0 .384.01.448.078.427.04-.021.067-.048.056-.07-.025-.042.352-.031.43.017.04.026.056-.064.056-.31V7.58L.403 7.52a6.48 6.48 0 0 1-.31-.085C.01 7.408 0 7.45 0 7.86ZM17.784 7.739c-.471.357-.595.4-1.572.549-.915.144-1.163.23-1.168.4 0 .048.036.059.118.037.156-.042.373-.074 1.096-.138.688-.07.936-.128.977-.24.01-.038.125-.118.249-.176.294-.139.832-.646.687-.646-.057 0-.232.096-.387.214ZM15.38 8.987c-.026.016-.331.058-.672.106-.383.048-.647.112-.693.16-.114.112-.042.15.29.15.227 0 .403-.048.713-.187.227-.107.45-.203.49-.219.068-.026.068-.026 0-.026a.478.478 0 0 0-.128.016ZM2.709 9.355a.78.78 0 0 0-.28.25c-.066.102-.128.192-.144.208-.01.016-.222.038-.465.054l-.45.026-.016.544-.015.544.155-.053a.794.794 0 0 0 .29-.24c.134-.181.372-.341.506-.341.088 0 .155.277.078.325a.865.865 0 0 1-.254.07c-.113.015-.201.058-.201.09 0 .032.062.288.134.56.073.277.124.555.114.619-.01.08.015.128.088.144.14.042.145.341.005.448-.083.064-.026.064.388.005.424-.059 1.98-.235 2.083-.235.02 0 .02-.026.005-.053-.015-.032-.077-.053-.134-.053-.067 0-.098-.038-.098-.123 0-.15.046-.219.18-.272.068-.027.078-.053.042-.07-.047-.015-.067-.165-.067-.485a6.4 6.4 0 0 0-.031-.661l-.031-.192-.28.027c-.263.026-.279.026-.33-.112a1.154 1.154 0 0 1-.052-.198c0-.09.217-.048.584.123.564.256.951.245 1.794-.059.703-.256 1.468-.602 1.52-.688.062-.101-.16-.133-1.158-.154-.853-.022-1.101-.006-1.598.085-.325.059-.61.096-.63.08-.02-.01-.17-.005-.326.021-.264.043-.3.038-.532-.112-.29-.186-.636-.234-.874-.122Zm.496.778c0 .027-.062.054-.134.054-.073 0-.12-.022-.098-.054.015-.032.077-.053.134-.053.052 0 .098.021.098.053Zm.465.854c.171.186.285.565.233.794-.02.112-.015.166.026.166.031 0 .052.032.036.064-.01.037 0 .112.026.16.031.069.026.096-.031.096a.136.136 0 0 1-.109-.054c-.015-.026-.072-.005-.129.054-.15.154-.346.133-.522-.059-.083-.09-.15-.187-.15-.213 0-.027-.036-.048-.077-.048-.093 0-.15-.304-.114-.63.052-.474.512-.661.811-.33Z"/><path d="M3.453 12.25c.031.011.093.011.13 0 .03-.015.005-.026-.068-.026-.072 0-.098.01-.062.027ZM.165 10.016 0 10.032V11.147h.62V9.973l-.14.011c-.082.01-.222.021-.315.032ZM31.742 11.685c0 .219 0 .219.118.144.135-.096.176-.25.078-.314-.145-.096-.196-.048-.196.17ZM28.81 16.41a.296.296 0 0 0-.119.038c0 .01.078.197.176.421.098.22.207.502.243.62.057.197.078.218.238.218h.17l-.03-.47a5.456 5.456 0 0 0-.078-.666c-.047-.192-.057-.198-.269-.192a3.342 3.342 0 0 0-.33.032Zm.398.097c.083.101.026.25-.082.23-.14-.027-.218-.198-.124-.257.103-.07.134-.064.206.027Zm.135.736c.046-.016.072.01.072.085 0 .144-.186.155-.222.01-.026-.106.026-.213.057-.117.01.027.051.038.093.022ZM29.927 18.341c-.155.112-.507.33-.78.48-.28.155-.507.288-.507.299 0 .016.165-.059.372-.16s.43-.187.491-.187a.54.54 0 0 0 .212-.048c.29-.15.641-.24.93-.245.295 0 .321-.01.321-.117 0-.096-.046-.123-.258-.171-.404-.09-.481-.075-.781.15ZM31.835 18.352c-.073.043-.093.123-.093.341 0 .294.02.32.175.262.062-.027.083-.112.083-.347 0-.325-.015-.347-.165-.256ZM31.809 19.13c-.078.027-.093.177-.021.177.109 0 .212-.07.212-.139 0-.075-.072-.09-.191-.037ZM0 19.317c0 .107.047.144.248.219.31.117.32.117.32-.032 0-.101-.04-.139-.211-.192a6.23 6.23 0 0 1-.285-.096c-.051-.016-.072.01-.072.101ZM28.924 19.307c-.145.026-.145.032-.036.064.13.037.408 0 .527-.064.088-.054-.227-.054-.49 0ZM28.097 19.381c-.186.064-.197.07-.078.096.124.022.12.027-.051.086-.176.058-.17.058.077.026.372-.048.507-.09.533-.18.01-.044 0-.054-.026-.022-.067.085-.217.08-.186-.006.03-.09.005-.085-.27 0ZM31.742 19.6c0 .107.025.133.129.133.103 0 .13-.026.13-.133 0-.107-.027-.133-.13-.133-.104 0-.13.026-.13.133ZM30.552 19.803c-.129.032-.196.064-.155.074.042.006.197-.016.336-.058.3-.091.16-.102-.18-.016ZM23.274 19.893c-.295.043-.78.278-.92.438-.052.058-.063.096-.031.096.036 0 .061-.016.061-.043 0-.021.13-.027.29-.021.44.032 2.554-.235 2.554-.315 0-.07-.238-.117-.372-.075-.099.027-.104.022-.042-.026.062-.048.02-.054-.175-.032-.14.016-.404.032-.585.032-.206 0-.32.021-.3.053.021.032-.051.053-.175.053-.12 0-.212-.026-.212-.058s.046-.043.103-.022c.073.027.104.011.104-.048 0-.048-.006-.08-.01-.08a3.5 3.5 0 0 1-.29.048Zm.47.251a.264.264 0 0 1-.13 0c-.035-.016-.01-.027.063-.027.072 0 .098.011.067.027ZM31.803 19.973c-.056.07-.051.08.037.08a.156.156 0 0 0 .129-.08c.036-.101-.078-.101-.166 0ZM31.752 20.533c.005.16-.01 1.254-.031 2.427-.031 1.659-.057 2.203-.12 2.443-.071.277-.071.325 0 .506.156.363.203.726.197 1.638 0 1.706-.17 2.469-.682 3.04-.408.458-.972.736-1.67.826-.615.08-27.807.086-28.128.006-.336-.086-.661-.283-.822-.502-.29-.389-.284-.32-.294-3.536L.186 24.4l.217-.016.217-.016v-.576c0-.315-.015-.832-.036-1.141l-.03-.571H0V32h32v-5.221c0-4.928-.005-5.227-.088-5.248-.088-.022-.088-.027 0-.032.078-.006.088-.075.088-.646v-.64l-.13.011c-.123.01-.129.027-.118.31ZM0 20.373c0 .091.036.107.196.102a.878.878 0 0 0 .295-.048c.098-.038.093-.043-.026-.07-.408-.096-.465-.09-.465.016Z"/><path d="M30.32 20.346c-.507.086-1.51.166-2.973.246-.61.032-1.122.07-1.132.08-.046.043 2.616.021 3.5-.032 1.225-.075 1.251-.08 1.251-.24 0-.155-.01-.155-.646-.053ZM1.385 20.517c.037.016.083.011.099-.005.02-.016-.01-.032-.068-.027-.056 0-.072.016-.03.032ZM1.747 20.57c.031.011.093.011.13 0 .03-.015.005-.026-.068-.026-.072 0-.098.01-.062.027ZM7.434 20.624c.036.016.083.01.098-.005.02-.016-.01-.032-.067-.027-.057 0-.072.016-.031.032ZM19.505 20.624c.047.01.119.01.155 0 .031-.016-.005-.027-.093-.027-.083 0-.114.011-.062.027ZM6.943 20.677c.077.011.191.011.258 0 .062-.01 0-.021-.144-.021-.14 0-.197.01-.114.021ZM7.64 20.73c.094.011.233.011.31 0 .078-.01 0-.02-.17-.02s-.232.01-.14.02ZM26.045 20.73c.036.017.082.011.098-.005.02-.016-.01-.032-.067-.026-.057 0-.073.016-.031.032ZM30.5 20.747c-.128.042-.128.042.021.048.083.005.135.021.114.042-.02.027-1.923.054-4.223.07-3.16.026-4.198.048-4.245.096-.046.048.005.064.248.064.166 0 .548.021.848.053.786.07 2.683.15 4.498.187.868.016 1.933.053 2.373.08.434.026.817.037.837.021.052-.032.062-.347.016-.47-.016-.047-.078-.085-.135-.085-.088 0-.093-.016-.041-.08.052-.069.047-.08-.057-.074a1.492 1.492 0 0 0-.253.048ZM1.385 20.89c.032.011.094.011.13 0 .03-.015.005-.026-.067-.026-.073 0-.099.01-.063.027ZM9.709 20.997c.036.016.082.011.098-.005.02-.016-.01-.032-.067-.027-.057 0-.073.016-.031.032ZM0 21.088c0 .043.098.096.248.133.197.043.207.054.052.032-.109-.01-.197.006-.197.032 0 .032-.02.038-.051.022-.031-.022-.052.106-.052.34v.38h.28c.154 0 .299-.027.32-.06.015-.031.015-.26-.005-.506l-.037-.448H.28c-.201 0-.279.022-.279.075ZM1.344 21.147c0 .053.052.08.15.08.176 0 .253-.08.13-.128-.145-.06-.28-.032-.28.048ZM2.352 21.173c-.015.027.01.054.062.054.662.016 1.019.016 1.256 0l.285-.016-.362-.038c-.553-.058-1.205-.058-1.24 0ZM10.107 21.179c-.124.042-.714.096-1.05.1-.036 0-.057.022-.041.049.057.09-1.5.304-1.598.219-.036-.032-.315-.054-.625-.054-.362.006-.63-.021-.76-.07-.103-.036-.181-.084-.17-.095.03-.032-.042-.037-.585-.048-.238-.005-.444.005-.46.021-.015.016.062.032.166.032.155 0 .19.016.165.08-.02.064.02.08.191.086.176.005.145.016-.14.053-.253.037-.377.032-.428-.016-.052-.043-.28-.053-.73-.043-1.183.032-1.84.027-2.264-.016l-.424-.048-.036.166a.805.805 0 0 0 0 .314l.031.155 1.277.037c.703.022 1.35.038 1.432.032.088 0 .238.022.336.054.12.037.32.032.62 0 .244-.032.776-.091 1.19-.14 2.28-.24 3.132-.346 3.515-.447a2.87 2.87 0 0 1 .894-.096c.295.005.517-.016.58-.053.087-.054.066-.06-.13-.032-.16.026-.217.016-.18-.022.046-.048.413-.09.594-.07.056.012.046.028-.026.06-.078.037-.052.048.119.048.32.005.263-.08-.125-.208-.367-.118-1.054-.14-1.338-.048ZM16.29 21.339c-.073.026-.16.037-.197.021-.041-.01-.062-.005-.041.021.015.027.15.075.3.112.144.032.45.118.677.192.222.07.739.224 1.153.342.94.266 1.271.426 1.468.71.33.468.114.922-.667 1.38l-.388.23 5.449.032c4.596.032 5.506.048 5.816.117.367.08.692.224.961.416.073.059.15.101.166.101.036 0 .015-3.45-.02-3.482-.027-.022-3.925-.139-5.92-.176l-.982-.016.439.074c.243.043.517.075.615.08.098 0 .166.011.15.027-.015.016-.605-.005-1.313-.053a43.613 43.613 0 0 0-1.907-.08c-.342 0-.972-.027-1.407-.059-.672-.053-.796-.048-.889.016-.103.075-.098.08.16.112.15.021.388.037.533.037.29 0 1.044.091 2.688.32.626.086 1.52.208 1.99.267.957.123 1.515.213 1.484.245-.041.043-1.453-.096-2.88-.282-.811-.102-1.762-.192-2.119-.203-.894-.021-1.535-.08-1.799-.165-.243-.08-.491-.096-.269-.016.083.026.005.032-.207.01a5.74 5.74 0 0 0-.542-.032c-.73.027-1.133.016-1.184-.037-.036-.037 0-.053.119-.053.15 0 .16-.01.087-.08-.04-.048-.17-.08-.31-.08-.129 0-.248-.027-.263-.054-.016-.032-.155-.048-.3-.042l-.269.005.233.037c.201.032.18.038-.14.032-.201 0-.357-.02-.341-.042.026-.048.026-.048-.134.016Zm.925.25c.186.08.067.075-.233-.016-.212-.058-.227-.069-.077-.058.098.01.237.042.31.074Zm.662.208a.67.67 0 0 1-.207 0c-.067-.01-.026-.02.088-.02.113-.006.165.004.119.02Zm5.247.582c.325.112.377.208.093.165-.243-.032-.626-.25-.44-.25.057 0 .212.037.347.085Zm2.517 1.098c.114.118.145.176.099.203a.085.085 0 0 0-.026.101c.026.038-.016.06-.109.06-.108 0-.222-.08-.444-.316-.3-.314-.31-.416-.031-.34.087.026.103.015.072-.038-.062-.102.248.128.44.33Zm.667-.122c-.03.01-.108-.038-.17-.102l-.109-.122.17.101c.094.053.145.107.11.123Zm-1.442.33c0 .022-.093-.058-.207-.176-.114-.117-.207-.229-.207-.245 0-.016.093.064.207.176.114.112.207.224.207.245Zm4.808-.229c.253.133.413.33.263.33-.057 0-.646-.389-.755-.495-.082-.08.181.01.492.165Zm.506-.032c.248.123.528.347.528.421 0 .086-.13.048-.336-.096a7.411 7.411 0 0 0-.517-.325l-.31-.176.206.032c.114.016.305.085.43.144Zm-.873.192c.217.139.33.277.222.277-.047 0-.558-.298-.734-.426-.176-.128.29.005.512.15Zm-.409.197c.104.128.026.15-.108.032-.099-.085-.104-.106-.042-.112.047 0 .114.038.15.08ZM23.873 21.317c.031.011.093.011.13 0 .03-.016.005-.026-.068-.026-.072 0-.098.01-.062.026Z"/><path d="M14.837 21.387c.067.048.067.058 0 .112-.062.042-.057.048.026.026.088-.026.103-.005.103.123.005.085-.015.144-.036.133-.026-.016-.031-.053-.01-.08.015-.032-.016-.026-.073.011-.062.037-.093.09-.083.112.016.021 0 .043-.025.043a.058.058 0 0 1-.057-.059c0-.027-.026-.037-.057-.021-.078.053.114.229.227.208.047-.006.088.01.088.042 0 .027-.036.043-.077.027-.057-.027-.068 0-.042.123.042.234-.093.4-.49.608-.445.229-.931.384-1.614.512-.3.053-.646.122-.775.154-.13.027-.502.102-.827.166-.326.058-.755.144-.957.192a6.126 6.126 0 0 1-.568.096.973.973 0 0 0-.285.048c-.041.016-.367.09-.723.17-.357.075-.73.16-.828.187-.103.021.998.043 2.621.048l2.802.005 1.257-.346c1.638-.448 2.223-.651 2.677-.928.667-.411.626-.779-.14-1.195-.423-.23-.914-.379-1.566-.49-.594-.097-.677-.102-.568-.027Zm1.013.645c.305.123.434.299.341.485-.046.102-.057.107-.057.027-.005-.085-.015-.09-.082-.016a.898.898 0 0 1-.259.144c-.098.037-.191.112-.207.16-.051.17-.17.235-.274.139-.046-.043-.212-.096-.356-.118-.285-.037-.316-.069-.212-.176.088-.09.15-.08.114.016-.037.096.056.107.129.011.201-.25.31-.357.372-.352.057 0 .057.01.005.032-.052.021-.052.043-.005.101.083.102.108.096.28-.053l.139-.128-.187-.17c-.196-.187-.242-.305-.092-.24.046.02.206.08.351.138Zm.062.784c.01.037-.026.064-.088.064-.114 0-.207.107-.098.112.036 0 .02.021-.036.043-.124.053-.223.01-.124-.054a.144.144 0 0 0 .072-.112c0-.037.047-.064.098-.053.062.01.083-.005.057-.048-.026-.037-.015-.053.026-.037.041.01.083.053.093.085Zm-1.561 1.05a1.225 1.225 0 0 1-.336.129c-.264.058-.853.122-.73.08a30.525 30.525 0 0 1 1.138-.278c.016-.005-.015.027-.072.07Z"/><path d="M14.289 21.675c.057.048.124.085.155.085.062 0 .036-.027-.124-.101-.124-.059-.124-.059-.031.016ZM13.886 21.915c-.016.026-.186.058-.378.08-.196.016-.646.074-1.008.122-.543.075-.693.08-.837.027-.15-.059-.228-.053-.507.027-.176.048-.33.112-.341.133-.01.021-.057.043-.104.043-.077 0-.077-.011-.01-.054.057-.037.005-.053-.18-.053-.239.005-.249.01-.161.08.103.08.103.08 0 .085a.652.652 0 0 1-.15-.005c-.026-.005-.093-.01-.14-.016-.051-.005-.093-.027-.093-.048s-.108-.037-.243-.037c-.175.01-.201.016-.093.032.088.016.181.048.207.08.036.037-.052.048-.284.026-.186-.01-.305-.016-.27 0 .032.016.053.048.032.075-.047.075-.93.053-1.39-.032-.383-.075-.456-.075-.755 0-.543.139-1.386.16-2.068.059-.32-.048-.93-.107-1.344-.134-.42-.026-.812-.074-.874-.112-.062-.037-.44-.08-.832-.096-.709-.037-.719-.037-.719.075 0 .075.047.128.114.155.119.042.119.042.01.064-.15.032-.176.192-.176 1.12v.768l1.774-.022 1.768-.016 1.214-.229c.667-.128 1.241-.256 1.267-.283.031-.032-.103-.048-.388-.037-.579.016-1.261 0-1.235-.027a.826.826 0 0 1 .212-.053c.108-.016.294-.053.413-.08.124-.027.584-.075 1.024-.112.992-.075 1.69-.17 2.817-.4.486-.096 1.324-.267 1.861-.373a21.89 21.89 0 0 0 1.19-.267 5.18 5.18 0 0 1 .434-.133c.284-.08.506-.288.418-.4-.072-.091-.134-.102-.175-.032Z"/><path d="M6.126 22.128c-.28.027-.3.037-.202.096.197.117.843.187 1.298.15.238-.022.419-.06.398-.086-.015-.027 0-.048.026-.048.03 0 .057-.021.057-.048s-.202-.043-.45-.043a4.932 4.932 0 0 1-.636-.02 2.488 2.488 0 0 0-.49 0ZM8.349 22.139c.222.074.977.192 1.065.16.072-.027-.486-.14-.962-.192-.227-.022-.237-.022-.103.032ZM3.024 22.24c.016.027.073.053.12.053.077 0 .077-.01.01-.053-.104-.07-.171-.07-.13 0ZM3.376 22.277c.046.011.129.011.18 0 .047-.016.006-.026-.092-.026-.099 0-.14.01-.088.026ZM17.99 22.917a.885.885 0 0 0-.18.123c-.3.277-1.634.864-2.74 1.2l-.414.128h.372c.315.005.465-.032.982-.23 1.045-.4 1.929-.863 1.929-1.018 0-.043.051-.112.113-.155.114-.085.088-.106-.062-.048ZM8.039 23.84c-.114.021-.672.117-1.236.208-.563.096-1.147.197-1.292.235l-.264.064.217.016c.197.016 3.32-.502 3.37-.555.037-.037-.573-.01-.795.032ZM2.445 25.803l-1.044.01-.031.176c-.016.091-.062.576-.103 1.078l-.181 2.09c-.057.651-.104 1.2-.104 1.216 0 .016.186.027.414.027.486 0 .434.09.517-.933.03-.384.067-.758.082-.843l.031-.144h1.795l.025-.23c.016-.122.036-.314.047-.42l.015-.203-.91-.011c-.868-.016-.904-.021-.894-.123.005-.058.026-.293.041-.522l.037-.411h2.042l.036-.283c.062-.554.082-.522-.367-.506-.223.01-.874.021-1.448.032ZM4.828 25.819c-.015.026-.227 2.128-.45 4.42-.01.134-.004.134.414.15.367.01.424.006.445-.08.015-.053.057-.426.093-.832l.062-.73h.134l.667-.048c1.112-.096 1.618-.592 1.629-1.584.005-.646-.27-1.051-.827-1.232-.181-.06-.512-.08-1.195-.086-.522-.005-.961.006-.972.022Zm1.79.837c.232.117.32.299.294.592-.052.485-.352.699-1.013.699h-.43l.026-.176c.016-.091.047-.39.068-.651.015-.267.04-.496.056-.523.047-.08.812-.037.998.059ZM14.614 25.813c-.666.176-1.07.694-1.07 1.382 0 .629.212.848 1.112 1.178.574.208.698.315.698.614 0 .41-.259.613-.786.613-.383 0-.641-.133-.729-.373-.036-.091-.098-.16-.145-.16-.072 0-.646.197-.708.245-.052.037.124.427.264.587.568.672 2.047.64 2.667-.06.367-.41.466-1.076.228-1.551-.135-.272-.476-.507-1.055-.72-.59-.219-.677-.288-.677-.544 0-.357.269-.544.734-.507.269.022.357.059.651.278.083.069.662-.246.683-.368.026-.134-.223-.374-.528-.512-.294-.134-.997-.187-1.338-.102ZM16.962 27.84c-.125 1.147-.238 2.187-.249 2.299l-.03.208h.884l.03-.283c.016-.15.042-.432.057-.624.016-.192.042-.421.057-.512l.02-.165.585-.032c1.287-.07 1.846-.55 1.846-1.579 0-.507-.073-.71-.331-.955-.341-.32-.61-.389-1.712-.421l-.93-.032-.227 2.096Zm1.985-1.2c.212.107.31.299.3.597-.01.262-.11.448-.295.582-.15.096-.817.202-1.003.154-.13-.032-.13-.037-.093-.469.015-.24.046-.55.067-.693l.031-.251h.409c.263 0 .475.032.584.08ZM20.834 25.83c0 .069-.409 4.1-.44 4.32l-.026.197 1.458-.011 1.463-.016.036-.347c.021-.186.026-.357.01-.373-.015-.016-.465-.032-.992-.043l-.967-.016.01-.384c.011-.213.027-.464.042-.56l.031-.17h1.84l.037-.283c.062-.57.16-.517-.88-.517h-.914l.041-.491c.02-.272.047-.512.062-.533.01-.027.47-.043 1.019-.043h.997l.037-.352c.02-.197.03-.363.02-.368-.036-.043-2.884-.048-2.884-.01ZM24.318 25.84c-.01.053-.114.997-.33 3.2a35.411 35.411 0 0 1-.13 1.157l-.02.15H26.767l.031-.123c.016-.064.031-.245.031-.4v-.277h-2.026l.03-.363c.022-.197.047-.448.063-.56l.03-.197h.926c1.05 0 .936.058 1.003-.518l.031-.282-.92-.011-.92-.016.015-.4c.021-.71-.093-.64 1.096-.64h1.03l.025-.176c.015-.09.036-.261.046-.368l.016-.197-1.468-.016c-.951-.011-1.479.005-1.49.037ZM8.147 25.904c.083.384.755 3.659.827 4.027l.088.469h.802l.336-.784c.186-.437.64-1.467 1.013-2.299l.667-1.504h-.956l-.192.49c-.512 1.292-1.08 2.657-1.117 2.657-.02 0-.15-.71-.289-1.573l-.248-1.574h-.476c-.429 0-.475.01-.455.09ZM27.838 25.877c-.01.038-.046.358-.077.71s-.13 1.301-.212 2.106c-.083.806-.15 1.504-.15 1.558 0 .09.067.096.868.096 1.236 0 1.67-.123 2.187-.624.29-.278.528-.736.616-1.174.036-.165.051-.56.04-.89-.015-.496-.04-.64-.15-.886-.216-.485-.521-.741-1.054-.885-.351-.101-2.037-.101-2.067-.01Zm1.95.838c.31.154.454.426.49.928.052.73-.217 1.418-.666 1.706-.192.123-.331.16-.693.198-.259.021-.48.021-.507-.006-.041-.037.135-2.49.207-2.869.026-.123.036-.128.486-.101.315.021.527.064.682.144Z"/></g><defs><clipPath id="a"><path fill="#fff" d="M0 0h32v32H0z"/></clipPath></defs></svg>